<svg width="20" height="20" viewBox="0 0 20 20" fill="none" xmlns="http://www.w3.org/2000/svg">
<g id="04.&#228;&#186;&#139;&#229;&#139;&#153;/&#227;&#131;&#149;&#227;&#130;&#161;&#227;&#130;&#164;&#227;&#131;&#171;">
<path id="Vector" d="M16.0761 6.09383C16.1571 6.18064 16.2381 6.29224 16.3191 6.42865H12.2219V2.03877C12.3492 2.12558 12.4534 2.21238 12.5344 2.29919L16.0761 6.09383ZM11.9441 7.61913H16.6663V17.4406C16.6663 17.6886 16.5853 17.8994 16.4233 18.073C16.2612 18.2466 16.0645 18.3334 15.833 18.3334H4.16634C3.93486 18.3334 3.7381 18.2466 3.57606 18.073C3.41403 17.8994 3.33301 17.6886 3.33301 17.4406V2.55961C3.33301 2.31159 3.41403 2.10078 3.57606 1.92716C3.7381 1.75355 3.93486 1.66675 4.16634 1.66675H11.1108V6.72627C11.1108 6.97429 11.1918 7.1851 11.3538 7.35871C11.5159 7.53232 11.7126 7.61913 11.9441 7.61913ZM13.333 14.4644V13.8691C13.333 13.7823 13.307 13.711 13.2549 13.6552C13.2028 13.5994 13.1362 13.5715 13.0552 13.5715H6.94412C6.8631 13.5715 6.79655 13.5994 6.74447 13.6552C6.69238 13.711 6.66634 13.7823 6.66634 13.8691V14.4644C6.66634 14.5512 6.69238 14.6225 6.74447 14.6783C6.79655 14.7341 6.8631 14.762 6.94412 14.762H13.0552C13.1362 14.762 13.2028 14.7341 13.2549 14.6783C13.307 14.6225 13.333 14.5512 13.333 14.4644ZM13.333 12.0834V11.4882C13.333 11.4014 13.307 11.3301 13.2549 11.2743C13.2028 11.2185 13.1362 11.1906 13.0552 11.1906H6.94412C6.8631 11.1906 6.79655 11.2185 6.74447 11.2743C6.69238 11.3301 6.66634 11.4014 6.66634 11.4882V12.0834C6.66634 12.1702 6.69238 12.2415 6.74447 12.2973C6.79655 12.3531 6.8631 12.381 6.94412 12.381H13.0552C13.1362 12.381 13.2028 12.3531 13.2549 12.2973C13.307 12.2415 13.333 12.1702 13.333 12.0834ZM13.333 9.70246V9.10722C13.333 9.02042 13.307 8.94911 13.2549 8.89331C13.2028 8.83751 13.1362 8.80961 13.0552 8.80961H6.94412C6.8631 8.80961 6.79655 8.83751 6.74447 8.89331C6.69238 8.94911 6.66634 9.02042 6.66634 9.10722V9.70246C6.66634 9.78927 6.69238 9.86057 6.74447 9.91638C6.79655 9.97218 6.8631 10.0001 6.94412 10.0001H13.0552C13.1362 10.0001 13.2028 9.97218 13.2549 9.91638C13.307 9.86057 13.333 9.78927 13.333 9.70246Z" fill="#DCCEC1"/>
</g>
</svg>
