<svg width="17" height="18" viewBox="0 0 17 18" fill="none" xmlns="http://www.w3.org/2000/svg">
<g id="04.&#228;&#186;&#139;&#229;&#139;&#153;/&#233;&#155;&#187;&#232;&#169;&#177;">
<path id="Vector" d="M5.50496 1.82935L6.26784 1.57135C6.98184 1.32985 7.74542 1.7206 8.05142 2.4841L8.66059 4.0051C8.92621 4.66735 8.77888 5.4466 8.29651 5.9311L6.95563 7.2796C7.03851 8.0866 7.29421 8.88085 7.72346 9.66235C8.13134 10.4185 8.67834 11.0803 9.33209 11.6086L10.9443 11.0386C11.5548 10.8234 12.22 11.0716 12.5947 11.6544L13.4673 13.0119C13.9037 13.6899 13.825 14.6244 13.2846 15.1989L12.7052 15.8146C12.1286 16.4274 11.3055 16.6501 10.5433 16.3981C8.74488 15.8041 7.09163 14.0409 5.58288 11.1084C4.07201 8.17135 3.53934 5.67835 3.98346 3.63235C4.17046 2.77135 4.74988 2.0851 5.50638 1.82935" fill="#ED7100"/>
</g>
</svg>
