<svg width="24" height="23" viewBox="0 0 24 23" fill="none" xmlns="http://www.w3.org/2000/svg">
<g id="&#227;&#131;&#129;&#227;&#130;&#177;&#227;&#131;&#131;&#227;&#131;&#136;">
<path id="Vector" d="M19.6475 5.73742L19.1561 6.22887C18.9059 6.47906 18.5665 6.61962 18.2127 6.61962C17.8589 6.61962 17.5195 6.47906 17.2693 6.22887C17.0191 5.97867 16.8786 5.63934 16.8786 5.28551C16.8786 4.93168 17.0191 4.59234 17.2693 4.34215L17.7608 3.8507L14.6288 0.71875L10.6757 4.67188L10.496 5.21498L9.95291 5.39467L1.21875 14.1288L4.3525 17.2626L4.84394 16.7711C5.09414 16.5209 5.43348 16.3804 5.7873 16.3804C6.14113 16.3804 6.48047 16.5209 6.73066 16.7711C6.98086 17.0213 7.12142 17.3607 7.12142 17.7145C7.12142 18.0683 6.98086 18.4077 6.73066 18.6579L6.23922 19.1493L9.37117 22.2812L18.104 13.5484L18.2837 13.0053L18.8268 12.8256L22.7799 8.87252L19.6475 5.73742ZM10.2786 5.98135L11.261 4.99891L12.7435 6.48133L11.7606 7.46377L10.2786 5.98135ZM12.2102 7.91299L13.1931 6.9301L14.654 8.39096L13.6711 9.37385L12.2102 7.91299ZM14.1221 9.82486L15.105 8.84197L16.5659 10.3028L15.5848 11.288L14.1221 9.82486ZM17.5169 13.2192L16.0344 11.7367L17.0169 10.7538L18.4993 12.2363L17.5169 13.2192Z" fill="#979797"/>
</g>
</svg>
