<svg width="17" height="18" viewBox="0 0 17 18" fill="none" xmlns="http://www.w3.org/2000/svg">
<g id="05.&#231;&#159;&#162;&#229;&#141;&#176;/&#227;&#130;&#183;&#227;&#131;&#167;&#227;&#131;&#188;&#227;&#131;&#136;&#227;&#130;&#171;&#227;&#131;&#131;&#227;&#131;&#136;">
<path id="Vector" d="M3.12697 14.2248C3.04116 14.1939 2.96671 14.1356 2.91401 14.0582C2.86131 13.9809 2.833 13.8882 2.83301 13.7931C2.83301 11.7075 3.23295 10.0395 4.02219 8.83516C4.97572 7.38005 6.47985 6.59657 8.49969 6.49927V4.20647C8.4997 4.11708 8.52477 4.02966 8.57178 3.95505C8.6188 3.88045 8.68569 3.82194 8.76417 3.78678C8.84265 3.75163 8.92925 3.74138 9.01324 3.7573C9.09723 3.77322 9.17491 3.81462 9.23664 3.87636L14.0315 8.66968C14.0741 8.71231 14.1081 8.76354 14.1312 8.82027C14.1544 8.87701 14.1663 8.93808 14.1663 8.99979C14.1663 9.0615 14.1544 9.12257 14.1312 9.17931C14.1081 9.23605 14.0741 9.28728 14.0315 9.32991L9.23664 14.1232C9.17491 14.185 9.09723 14.2264 9.01324 14.2423C8.92925 14.2582 8.84265 14.248 8.76417 14.2128C8.68569 14.1777 8.6188 14.1191 8.57178 14.0445C8.52477 13.9699 8.4997 13.8825 8.49969 13.7931V11.5171C7.27373 11.5559 6.34744 11.7639 5.60996 12.1631C4.81308 12.5945 4.23524 13.239 3.61245 14.0747C3.55658 14.1496 3.47977 14.2044 3.39274 14.2314C3.3057 14.2585 3.21279 14.2558 3.12697 14.2248Z" fill="#ED7100"/>
</g>
</svg>
