<svg width="20" height="20" viewBox="0 0 20 20" fill="none" xmlns="http://www.w3.org/2000/svg">
<g id="07.&#227;&#130;&#176;&#227;&#131;&#169;&#227;&#131;&#149;/&#230;&#163;&#146;_&#230;&#138;&#152;&#227;&#130;&#140;&#231;&#183;&#154;">
<path id="Vector" d="M17.8571 18.5714V10H12.1429V18.5714H9.28571V7.14286H3.57143V18.5714H1.42857V0H0V18.5714C0 18.9503 0.15051 19.3137 0.418419 19.5816C0.686328 19.8495 1.04969 20 1.42857 20H20V18.5714H17.8571ZM7.85714 8.57143V12.8571H5V8.57143H7.85714ZM16.4286 11.4286V15.7143H13.5714V11.4286H16.4286Z" fill="#DCCEC1"/>
<path id="Vector_2" d="M14.8465 8.5718C14.5433 8.57223 14.248 8.47561 14.0037 8.29608L6.57438 2.84823L4.45795 5.71465L3.31152 4.8618L5.44152 2.00465C5.663 1.70647 5.99201 1.50638 6.35866 1.44689C6.72531 1.38741 7.1007 1.47321 7.40509 1.68608L14.8487 7.14323L17.4237 3.6718L18.5708 4.5218L15.9965 7.99465C15.8633 8.17406 15.6899 8.31972 15.4901 8.41995C15.2904 8.52018 15.07 8.57219 14.8465 8.5718Z" fill="#DCCEC1"/>
</g>
</svg>
