<svg width="13" height="16" viewBox="0 0 13 16" fill="none" xmlns="http://www.w3.org/2000/svg">
<g id="&#227;&#130;&#176;&#227;&#131;&#171;&#227;&#131;&#188;&#227;&#131;&#151;">
<path id="&#227;&#131;&#153;&#227;&#130;&#175;&#227;&#130;&#191;&#227;&#131;&#188;" d="M9.33333 0.25C10.2726 0.25 11.1735 0.645088 11.8377 1.34835C12.5019 2.05161 12.875 3.00544 12.875 4V10C12.875 10.9946 12.5019 11.9484 11.8377 12.6517C11.1735 13.3549 10.2726 13.75 9.33333 13.75H3.66667C2.72736 13.75 1.82652 13.3549 1.16233 12.6517C0.498139 11.9484 0.125 10.9946 0.125 10V4C0.125 3.00544 0.498139 2.05161 1.16233 1.34835C1.82652 0.645088 2.72736 0.25 3.66667 0.25H9.33333ZM6.5 4C5.74855 4 5.02788 4.31607 4.49653 4.87868C3.96518 5.44129 3.66667 6.20435 3.66667 7C3.66667 7.79565 3.96518 8.55871 4.49653 9.12132C5.02788 9.68393 5.74855 10 6.5 10C7.25145 10 7.97212 9.68393 8.50347 9.12132C9.03482 8.55871 9.33333 7.79565 9.33333 7C9.33333 6.20435 9.03482 5.44129 8.50347 4.87868C7.97212 4.31607 7.25145 4 6.5 4ZM6.5 5.5C6.87572 5.5 7.23606 5.65804 7.50173 5.93934C7.76741 6.22064 7.91667 6.60218 7.91667 7C7.91667 7.39782 7.76741 7.77936 7.50173 8.06066C7.23606 8.34196 6.87572 8.5 6.5 8.5C6.12428 8.5 5.76394 8.34196 5.49827 8.06066C5.23259 7.77936 5.08333 7.39782 5.08333 7C5.08333 6.60218 5.23259 6.22064 5.49827 5.93934C5.76394 5.65804 6.12428 5.5 6.5 5.5ZM9.6875 2.875C9.49964 2.875 9.31947 2.95402 9.18663 3.09467C9.05379 3.23532 8.97917 3.42609 8.97917 3.625C8.97917 3.82391 9.05379 4.01468 9.18663 4.15533C9.31947 4.29598 9.49964 4.375 9.6875 4.375C9.87536 4.375 10.0555 4.29598 10.1884 4.15533C10.3212 4.01468 10.3958 3.82391 10.3958 3.625C10.3958 3.42609 10.3212 3.23532 10.1884 3.09467C10.0555 2.95402 9.87536 2.875 9.6875 2.875Z" fill="#ED7100"/>
</g>
</svg>
