<svg width="25" height="25" viewBox="0 0 25 25" fill="none" xmlns="http://www.w3.org/2000/svg">
<g id="Group">
<path id="Vector" fill-rule="evenodd" clip-rule="evenodd" d="M12.5 2.5V9C12.5 9.39782 12.658 9.77936 12.9393 10.0607C13.2206 10.342 13.6022 10.5 14 10.5H20.5V20.5C20.5 21.0304 20.2893 21.5391 19.9142 21.9142C19.5391 22.2893 19.0304 22.5 18.5 22.5H6.5C5.96957 22.5 5.46086 22.2893 5.08579 21.9142C4.71071 21.5391 4.5 21.0304 4.5 20.5V4.5C4.5 3.96957 4.71071 3.46086 5.08579 3.08579C5.46086 2.71071 5.96957 2.5 6.5 2.5H12.5ZM14.091 14.157L11.616 16.632L10.909 15.925C10.7204 15.7428 10.4678 15.642 10.2056 15.6443C9.9434 15.6466 9.69259 15.7518 9.50718 15.9372C9.32177 16.1226 9.2166 16.3734 9.21433 16.6356C9.21205 16.8978 9.31284 17.1504 9.495 17.339L10.838 18.683C10.9402 18.7852 11.0614 18.8663 11.1949 18.9216C11.3284 18.9769 11.4715 19.0054 11.616 19.0054C11.7605 19.0054 11.9036 18.9769 12.0371 18.9216C12.1706 18.8663 12.2918 18.7852 12.394 18.683L15.505 15.571C15.6005 15.4788 15.6767 15.3684 15.7291 15.2464C15.7815 15.1244 15.8091 14.9932 15.8103 14.8604C15.8114 14.7276 15.7861 14.5959 15.7358 14.473C15.6855 14.3502 15.6113 14.2385 15.5174 14.1446C15.4235 14.0507 15.3119 13.9765 15.189 13.9262C15.0661 13.8759 14.9344 13.8506 14.8016 13.8517C14.6688 13.8529 14.5376 13.8805 14.4156 13.9329C14.2936 13.9853 14.1832 14.0615 14.091 14.157ZM14.5 2.543C14.8789 2.62336 15.2263 2.81199 15.5 3.086L19.914 7.5C20.188 7.77373 20.3766 8.12112 20.457 8.5H14.5V2.543Z" fill="#5D8B00"/>
</g>
</svg>
