<svg width="17" height="18" viewBox="0 0 17 18" fill="none" xmlns="http://www.w3.org/2000/svg">
<g id="lineicons:line">
<path id="&#227;&#131;&#153;&#227;&#130;&#175;&#227;&#130;&#191;&#227;&#131;&#188;" d="M15.5837 7.96645C15.5837 4.60345 12.3848 1.8457 8.50033 1.8457C4.61583 1.8457 1.41699 4.57945 1.41699 7.96645C1.41699 10.9665 3.93016 13.4827 7.33512 13.9665C7.5632 13.9905 7.88337 14.136 7.95137 14.3295C8.02078 14.499 7.97474 14.8132 7.97474 15.0067C7.97474 15.0067 7.88337 15.5632 7.88337 15.66C7.8607 15.8295 7.74595 16.41 8.50033 16.023C9.23133 15.6847 12.5676 13.458 14.0756 11.6685C15.1041 10.5067 15.5837 9.29695 15.5837 7.96645ZM5.98716 9.7327C5.98454 9.77037 5.96922 9.80579 5.94399 9.8325C5.91877 9.85921 5.88532 9.87543 5.84974 9.8782H3.86216C3.83878 9.8782 3.79345 9.85345 3.77008 9.85345C3.74741 9.82945 3.74741 9.78145 3.74741 9.7567V6.46645C3.74741 6.3937 3.81612 6.3217 3.88483 6.3217H4.36437C4.43308 6.3217 4.50178 6.3937 4.50178 6.46645V9.05545H5.84974C5.91845 9.05545 5.98716 9.1282 5.98716 9.2002V9.7327ZM7.17503 9.7327C7.17241 9.77037 7.15709 9.80579 7.13187 9.8325C7.10664 9.85921 7.07319 9.87543 7.03762 9.8782H6.55808C6.52263 9.87526 6.48935 9.85896 6.46427 9.83227C6.43919 9.80558 6.42397 9.77025 6.42137 9.7327V6.46645C6.42137 6.3937 6.48937 6.3217 6.55808 6.3217H7.03762C7.10633 6.3217 7.17503 6.3937 7.17503 6.46645V9.7327ZM10.6253 9.7327C10.6227 9.77037 10.6074 9.80579 10.5822 9.8325C10.5569 9.85921 10.5235 9.87543 10.4879 9.8782H9.9857C9.96303 9.8782 9.96303 9.85345 9.96303 9.85345L8.50033 7.82095V9.7567C8.4977 9.79437 8.48238 9.82979 8.45716 9.8565C8.43193 9.88321 8.39849 9.89943 8.36291 9.9022H7.88337C7.84779 9.89943 7.81434 9.88321 7.78912 9.8565C7.76389 9.82979 7.74857 9.79437 7.74595 9.7567V6.49045C7.74595 6.41845 7.81466 6.3457 7.88337 6.3457H8.36362L8.38628 6.3697L9.80295 8.3782V6.44245C9.80295 6.3697 9.87095 6.29695 9.93966 6.29695H10.4879C10.5566 6.29695 10.6253 6.3697 10.6253 6.44245V9.7327ZM13.3673 6.99895C13.3645 7.03649 13.3491 7.07173 13.3239 7.09828C13.2987 7.12484 13.2653 7.14095 13.2299 7.1437H11.8819V7.7002H13.2299C13.2986 7.7002 13.3673 7.77295 13.3673 7.8457V8.35345C13.3647 8.39112 13.3493 8.42654 13.3241 8.45325C13.2989 8.47996 13.2654 8.49618 13.2299 8.49895H11.8819V9.0067H13.2299C13.2986 9.0067 13.3673 9.07945 13.3673 9.1522V9.65995C13.3647 9.69762 13.3493 9.73304 13.3241 9.75975C13.2989 9.78646 13.2654 9.80268 13.2299 9.80545H11.2423C11.2196 9.80545 11.1736 9.78145 11.1502 9.78145C11.1282 9.7567 11.1282 9.7087 11.1282 9.68395V6.4192C11.1282 6.39445 11.1509 6.34645 11.1509 6.3217C11.1736 6.2977 11.2196 6.2977 11.2423 6.2977H13.2299C13.2986 6.2977 13.3673 6.37045 13.3673 6.4432V6.99895Z" fill="#ED7100"/>
</g>
</svg>
