<svg width="16" height="17" viewBox="0 0 16 17" fill="none" xmlns="http://www.w3.org/2000/svg">
<g id="&#227;&#131;&#129;&#227;&#130;&#177;&#227;&#131;&#131;&#227;&#131;&#136;">
<path id="Vector" d="M13.32 4.49125L12.9781 4.83313C12.8041 5.00717 12.568 5.10495 12.3219 5.10495C12.0757 5.10495 11.8397 5.00717 11.6656 4.83313C11.4916 4.65908 11.3938 4.42302 11.3938 4.17687C11.3938 3.93073 11.4916 3.69467 11.6656 3.52063L12.0075 3.17875L9.82875 1L7.07875 3.75L6.95375 4.12781L6.57594 4.25281L0.5 10.3287L2.68 12.5087L3.02187 12.1669C3.19592 11.9928 3.43198 11.895 3.67812 11.895C3.92427 11.895 4.16033 11.9928 4.33437 12.1669C4.50842 12.3409 4.6062 12.577 4.6062 12.8231C4.6062 13.0693 4.50842 13.3053 4.33437 13.4794L3.9925 13.8212L6.17125 16L12.2463 9.925L12.3713 9.54719L12.7491 9.42219L15.4991 6.67219L13.32 4.49125ZM6.8025 4.66094L7.48594 3.9775L8.51719 5.00875L7.83344 5.69219L6.8025 4.66094ZM8.14625 6.00469L8.83 5.32094L9.84625 6.33719L9.1625 7.02094L8.14625 6.00469ZM9.47625 7.33469L10.16 6.65094L11.1763 7.66719L10.4937 8.3525L9.47625 7.33469ZM11.8378 9.69594L10.8066 8.66469L11.49 7.98094L12.5212 9.01219L11.8378 9.69594Z" fill="#5D8B00"/>
</g>
</svg>
