<svg width="21" height="20" viewBox="0 0 21 20" fill="none" xmlns="http://www.w3.org/2000/svg">
<g id="01.&#227;&#130;&#136;&#227;&#129;&#143;&#228;&#189;&#191;&#227;&#129;&#134;/&#230;&#153;&#130;&#232;&#168;&#136;_&#230;&#138;&#156;&#227;&#129;&#141;" clip-path="url(#clip0_562_8594)">
<path id="Vector" fill-rule="evenodd" clip-rule="evenodd" d="M4.60732 14.7143C4.4511 14.8706 4.36333 15.0825 4.36333 15.3035C4.36333 15.5244 4.4511 15.7363 4.60732 15.8926C7.86149 19.1468 13.1382 19.1468 16.3923 15.8926C19.6465 12.6384 19.6465 7.36178 16.3923 4.10762C13.1382 0.853451 7.86149 0.853451 4.60732 4.10762C3.24556 5.46517 2.39727 7.25334 2.20732 9.16678H1.33316C1.16836 9.16682 1.00728 9.21571 0.870274 9.30728C0.733265 9.39885 0.626482 9.52899 0.563424 9.68124C0.500366 9.83349 0.483863 10.001 0.516003 10.1626C0.548143 10.3243 0.627481 10.4727 0.743989 10.5893L2.41066 12.2559L2.41232 12.2576C2.48968 12.335 2.58156 12.3963 2.68269 12.4381C2.78381 12.4798 2.89218 12.5012 3.00159 12.501C3.111 12.5007 3.21928 12.4789 3.32023 12.4367C3.42117 12.3945 3.51279 12.3328 3.58982 12.2551L5.25649 10.5893C5.37305 10.4727 5.4524 10.3241 5.48452 10.1624C5.51663 10.0007 5.50006 9.83314 5.43689 9.68085C5.37373 9.52857 5.26682 9.39844 5.12968 9.30693C4.99255 9.21543 4.83135 9.16665 4.66649 9.16678H3.88482C4.07323 7.67208 4.76235 6.28526 5.83986 5.23235C6.91736 4.17945 8.31973 3.52254 9.81839 3.3687C11.317 3.21486 12.8236 3.57316 14.0926 4.3852C15.3615 5.19724 16.318 6.41514 16.8062 7.84039C17.2943 9.26565 17.2853 10.8142 16.7807 12.2337C16.276 13.6532 15.3054 14.8599 14.0271 15.6572C12.7489 16.4544 11.2382 16.7952 9.74145 16.624C8.24468 16.4528 6.85004 15.7796 5.78482 14.7143C5.62858 14.5583 5.41684 14.4707 5.19607 14.4707C4.97531 14.4707 4.76356 14.5583 4.60732 14.7143ZM8.83316 6.66678C8.83316 6.44577 8.92095 6.23381 9.07723 6.07753C9.23351 5.92125 9.44548 5.83345 9.66649 5.83345C9.8875 5.83345 10.0995 5.92125 10.2557 6.07753C10.412 6.23381 10.4998 6.44577 10.4998 6.66678V10.0001H13.8332C14.0542 10.0001 14.2661 10.0879 14.4224 10.2442C14.5787 10.4005 14.6665 10.6124 14.6665 10.8335C14.6665 11.0545 14.5787 11.2664 14.4224 11.4227C14.2661 11.579 14.0542 11.6668 13.8332 11.6668H9.66649C9.44548 11.6668 9.23351 11.579 9.07723 11.4227C8.92095 11.2664 8.83316 11.0545 8.83316 10.8335V6.66678Z" fill="#5D8B00"/>
</g>
<defs>
<clipPath id="clip0_562_8594">
<rect width="20" height="20" fill="white" transform="translate(0.5)"/>
</clipPath>
</defs>
</svg>
