<svg width="20" height="20" viewBox="0 0 20 20" fill="none" xmlns="http://www.w3.org/2000/svg">
<g id="03.&#227;&#131;&#158;&#227;&#131;&#188;&#227;&#130;&#175;/&#227;&#131;&#129;&#227;&#130;&#177;&#227;&#131;&#131;&#227;&#131;&#136;">
<path id="Vector" fill-rule="evenodd" clip-rule="evenodd" d="M3.81469 6.33015L8.98512 2.72972C9.2627 2.53649 9.60608 2.4608 9.93977 2.51931C10.2734 2.57781 10.5701 2.76571 10.7645 3.04169L11.5801 4.19969C11.592 4.21663 11.6034 4.2339 11.6143 4.25147L3.81469 6.33015ZM2.06406 10.5056L1.71042 9.19289C1.62282 8.86732 1.66886 8.52048 1.8384 8.22866C2.00795 7.93684 2.28711 7.72395 2.61449 7.63683L15.5743 4.18349C15.9016 4.09625 16.2504 4.1419 16.5439 4.31039C16.8374 4.47887 17.0515 4.7564 17.1393 5.08193L17.507 6.44738C17.5589 6.64015 17.5527 6.84386 17.489 7.03311C17.4253 7.22237 17.307 7.3888 17.1489 7.51166C16.9003 7.70442 16.7147 7.96599 16.6153 8.26344C16.5159 8.56089 16.5072 8.88094 16.5903 9.18329C16.6734 9.48565 16.8445 9.75681 17.0822 9.96265C17.3199 10.1685 17.6135 10.2998 17.9261 10.3401C18.1192 10.3651 18.3004 10.4466 18.4469 10.5741C18.5934 10.7016 18.6985 10.8695 18.749 11.0565L19.1234 12.447C19.2112 12.7726 19.1653 13.1194 18.9958 13.4113C18.8264 13.7032 18.5473 13.9162 18.22 14.0034L5.2596 17.4568C4.93231 17.5439 4.58362 17.4982 4.29019 17.3297C3.99677 17.1613 3.78264 16.8838 3.6949 16.5583L3.34254 15.2501C3.28684 15.0442 3.29219 14.8267 3.35794 14.6238C3.42369 14.4209 3.54703 14.2412 3.71311 14.1064C3.95175 13.9126 4.12898 13.6544 4.22346 13.3629C4.31794 13.0713 4.32564 12.7587 4.24564 12.4629C4.16563 12.1671 4.00133 11.9006 3.77252 11.6954C3.54371 11.4903 3.26015 11.3554 2.95599 11.3068C2.74558 11.2731 2.54947 11.1795 2.39128 11.0375C2.23309 10.8955 2.11957 10.711 2.06438 10.5062M13.3981 8.38119C13.5211 8.35011 13.6367 8.29506 13.7381 8.21921C13.8396 8.14336 13.9248 8.04823 13.989 7.93934C14.0532 7.83045 14.095 7.70997 14.1119 7.58489C14.1289 7.45982 14.1207 7.33263 14.0879 7.21073C14.055 7.08882 13.9982 6.97461 13.9206 6.87474C13.843 6.77486 13.7462 6.69131 13.6359 6.62892C13.5256 6.56654 13.4039 6.52657 13.2779 6.51133C13.1519 6.49609 13.0241 6.50588 12.902 6.54015C12.6595 6.60818 12.4536 6.76848 12.3291 6.98634C12.2045 7.2042 12.1712 7.46208 12.2365 7.70415C12.3017 7.94622 12.4602 8.153 12.6776 8.27971C12.895 8.40643 13.1539 8.44288 13.3981 8.38119ZM14.0594 10.8363C14.181 10.804 14.2949 10.7481 14.3948 10.6719C14.4947 10.5957 14.5785 10.5007 14.6414 10.3923C14.7044 10.284 14.7452 10.1643 14.7617 10.0402C14.7781 9.91612 14.7698 9.79002 14.7373 9.66912C14.7047 9.54821 14.6485 9.43487 14.5719 9.33556C14.4953 9.23624 14.3998 9.15291 14.2908 9.09031C14.1818 9.02771 14.0615 8.98707 13.9367 8.97071C13.812 8.95435 13.6852 8.9626 13.5636 8.99497C13.3181 9.0604 13.1087 9.22014 12.9816 9.43907C12.8545 9.65799 12.8201 9.91816 12.8859 10.1623C12.9517 10.4065 13.1123 10.6147 13.3324 10.7411C13.5526 10.8675 13.8139 10.9018 14.0594 10.8363ZM14.7213 13.2912C14.8446 13.2604 14.9606 13.2056 15.0624 13.1298C15.1642 13.0541 15.2498 12.9589 15.3143 12.8499C15.3788 12.7409 15.4208 12.6203 15.4379 12.495C15.455 12.3697 15.4469 12.2423 15.414 12.1201C15.3811 11.998 15.3241 11.8836 15.2463 11.7835C15.1685 11.6835 15.0715 11.5999 14.9609 11.5375C14.8503 11.4752 14.7283 11.4353 14.602 11.4203C14.4758 11.4053 14.3478 11.4154 14.2255 11.4501C13.9836 11.5187 13.7786 11.6791 13.6545 11.8967C13.5305 12.1143 13.4974 12.3716 13.5625 12.6132C13.6276 12.8548 13.7855 13.0613 14.0023 13.1882C14.2191 13.315 14.4773 13.352 14.7213 13.2912Z" fill="#DCCEC1"/>
</g>
</svg>
