<svg width="21" height="21" viewBox="0 0 21 21" fill="none" xmlns="http://www.w3.org/2000/svg">
<g id="04.&#228;&#186;&#139;&#229;&#139;&#153;/&#233;&#155;&#187;&#232;&#169;&#177;">
<path id="Vector" d="M6.72006 2.39845L7.63268 2.10695C8.48683 1.8341 9.40029 2.27558 9.76636 3.1382L10.4951 4.85667C10.8129 5.6049 10.6366 6.48531 10.0595 7.03272L8.45548 8.55629C8.55462 9.46806 8.86052 10.3654 9.37403 11.2484C9.86197 12.1027 10.5163 12.8504 11.2984 13.4473L13.227 12.8033C13.9575 12.5601 14.7531 12.8406 15.2014 13.499L16.2454 15.0327C16.7673 15.7988 16.6733 16.8546 16.0267 17.5037L15.3336 18.1994C14.6438 18.8917 13.6592 19.1433 12.7474 18.8586C10.5959 18.1875 8.61817 16.1953 6.81327 12.8821C5.00583 9.56381 4.36861 6.74715 4.89991 4.43553C5.12361 3.46274 5.81676 2.6874 6.72176 2.39845" fill="#5D8B00"/>
</g>
</svg>
