<svg width="21" height="22" viewBox="0 0 21 22" fill="none" xmlns="http://www.w3.org/2000/svg">
<g id="01.&#227;&#130;&#136;&#227;&#129;&#143;&#228;&#189;&#191;&#227;&#129;&#134;/&#232;&#153;&#171;&#231;&#156;&#188;&#233;&#143;&#161;">
<path id="Vector" fill-rule="evenodd" clip-rule="evenodd" d="M13.0789 14.9716C11.7463 15.9532 10.0921 16.3951 8.44748 16.2087C6.80292 16.0224 5.28952 15.2214 4.21047 13.9665C3.13142 12.7115 2.56642 11.0951 2.62867 9.44118C2.69092 7.78726 3.37581 6.21793 4.54614 5.0476C5.71647 3.87728 7.28579 3.19238 8.93971 3.13014C10.5936 3.06789 12.21 3.63288 13.465 4.71193C14.72 5.79098 15.5209 7.30438 15.7073 8.94895C15.8937 10.5935 15.4518 12.2478 14.4701 13.5803L18.086 17.1949C18.1828 17.2851 18.2603 17.3937 18.3141 17.5145C18.3679 17.6352 18.3969 17.7656 18.3992 17.8978C18.4015 18.0299 18.3772 18.1612 18.3277 18.2838C18.2782 18.4064 18.2045 18.5177 18.111 18.6112C18.0176 18.7047 17.9062 18.7783 17.7836 18.8279C17.6611 18.8774 17.5298 18.9017 17.3976 18.8993C17.2654 18.897 17.1351 18.8681 17.0143 18.8143C16.8936 18.7605 16.7849 18.6829 16.6948 18.5862L13.0789 14.9716ZM13.781 9.68744C13.781 10.9058 13.2971 12.0742 12.4356 12.9357C11.5741 13.7972 10.4056 14.2812 9.18729 14.2812C7.96895 14.2812 6.80052 13.7972 5.93902 12.9357C5.07753 12.0742 4.59354 10.9058 4.59354 9.68744C4.59354 8.46911 5.07753 7.30067 5.93902 6.43917C6.80052 5.57768 7.96895 5.09369 9.18729 5.09369C10.4056 5.09369 11.5741 5.57768 12.4356 6.43917C13.2971 7.30067 13.781 8.46911 13.781 9.68744Z" fill="white"/>
</g>
</svg>
