<svg width="25" height="24" viewBox="0 0 25 24" fill="none" xmlns="http://www.w3.org/2000/svg">
<g id="04.&#228;&#186;&#139;&#229;&#139;&#153;/&#229;&#141;&#176;&#229;&#136;&#183;">
<path id="Vector" d="M19.25 4.5V2.625C19.25 2.52554 19.2105 2.43016 19.1402 2.35984C19.0698 2.28951 18.9745 2.25 18.875 2.25H6.125C6.02554 2.25 5.93016 2.28951 5.85984 2.35984C5.78951 2.43016 5.75 2.52554 5.75 2.625V4.5" fill="white"/>
<path id="Vector_2" d="M19.625 5.25H5.375C4.67881 5.25 4.01113 5.52656 3.51884 6.01884C3.02656 6.51113 2.75 7.17881 2.75 7.875V17.625C2.75 17.7245 2.78951 17.8198 2.85984 17.8902C2.93016 17.9605 3.02554 18 3.125 18H5.75V21.375C5.75 21.4745 5.78951 21.5698 5.85984 21.6402C5.93016 21.7105 6.02554 21.75 6.125 21.75H18.875C18.9745 21.75 19.0698 21.7105 19.1402 21.6402C19.2105 21.5698 19.25 21.4745 19.25 21.375V18H21.875C21.9745 18 22.0698 17.9605 22.1402 17.8902C22.2105 17.8198 22.25 17.7245 22.25 17.625V7.875C22.25 7.17881 21.9734 6.51113 21.4812 6.01884C20.9889 5.52656 20.3212 5.25 19.625 5.25ZM17.375 19.6875C17.375 19.7372 17.3552 19.7849 17.3201 19.8201C17.2849 19.8552 17.2372 19.875 17.1875 19.875H7.8125C7.76277 19.875 7.71508 19.8552 7.67992 19.8201C7.64475 19.7849 7.625 19.7372 7.625 19.6875V12.5625C7.625 12.5128 7.64475 12.4651 7.67992 12.4299C7.71508 12.3948 7.76277 12.375 7.8125 12.375H17.1875C17.2372 12.375 17.2849 12.3948 17.3201 12.4299C17.3552 12.4651 17.375 12.5128 17.375 12.5625V19.6875ZM18.9688 9.74625C18.7393 9.76469 18.5097 9.7123 18.311 9.59615C18.1122 9.48 17.9539 9.30568 17.8573 9.09671C17.7608 8.88774 17.7307 8.65418 17.7711 8.42756C17.8114 8.20093 17.9204 7.99214 18.0831 7.82937C18.2459 7.6666 18.4547 7.55768 18.6813 7.5173C18.9079 7.47693 19.1415 7.50705 19.3505 7.6036C19.5594 7.70014 19.7338 7.85847 19.8499 8.05721C19.9661 8.25596 20.0184 8.48555 20 8.715C19.9786 8.98136 19.8631 9.23141 19.6741 9.42036C19.4852 9.60932 19.2351 9.72484 18.9688 9.74625Z" fill="white"/>
</g>
</svg>
