<svg width="21" height="20" viewBox="0 0 21 20" fill="none" xmlns="http://www.w3.org/2000/svg">
<g id="&#227;&#131;&#148;&#227;&#131;&#179;">
<path id="&#227;&#131;&#153;&#227;&#130;&#175;&#227;&#130;&#191;&#227;&#131;&#188;" d="M13.0946 2.67524L13.1729 2.74441L17.7562 7.32774C17.8967 7.46897 17.9819 7.65585 17.9965 7.85451C18.0111 8.05318 17.954 8.25049 17.8356 8.41069C17.7172 8.57089 17.5453 8.68339 17.3512 8.72779C17.157 8.7722 16.9533 8.74557 16.7771 8.65274L14.1337 11.2952L12.9471 14.4594C12.9158 14.5429 12.8713 14.6208 12.8154 14.6902L12.7571 14.7569L11.5071 16.0069C11.3635 16.1503 11.1725 16.2363 10.97 16.2489C10.7674 16.2615 10.5673 16.1997 10.4071 16.0752L10.3279 16.0061L8.00039 13.6794L4.83956 16.8394C4.68959 16.9889 4.48836 17.0756 4.27674 17.0821C4.06511 17.0886 3.85896 17.0142 3.70016 16.8742C3.54136 16.7342 3.4418 16.5389 3.42173 16.3282C3.40165 16.1174 3.46255 15.9069 3.59206 15.7394L3.66123 15.6611L6.82123 12.5002L4.49456 10.1727C4.35108 10.0292 4.26489 9.83833 4.25215 9.63581C4.23942 9.43329 4.30102 9.23308 4.42539 9.07274L4.49456 8.99441L5.74456 7.74441C5.80744 7.68131 5.88002 7.62869 5.95956 7.58857L6.04123 7.55357L9.20456 6.36607L11.8471 3.72441C11.7569 3.55593 11.7275 3.36161 11.7636 3.17399C11.7996 2.98638 11.8991 2.81685 12.0453 2.69382C12.1914 2.57079 12.3754 2.50172 12.5665 2.49819C12.7575 2.49466 12.9439 2.5577 13.0946 2.67524Z" fill="#5D8B00"/>
</g>
</svg>
