<svg width="17" height="17" viewBox="0 0 17 17" fill="none" xmlns="http://www.w3.org/2000/svg">
<g id="04.&#228;&#186;&#139;&#229;&#139;&#153;/&#227;&#131;&#154;&#227;&#131;&#179;1" clip-path="url(#clip0_562_8524)">
<path id="Vector" d="M12.9559 2.25303L12.9561 2.25316C13.207 2.41068 13.2831 2.74153 13.1248 2.99423C13.1247 2.99427 13.1247 2.99431 13.1247 2.99435L12.6574 3.73769L10.0546 2.10391L10.5224 1.35959L10.5225 1.3594C10.5984 1.23857 10.7191 1.15281 10.8582 1.12098C10.9973 1.08916 11.1433 1.11387 11.2641 1.18969L12.9559 2.25303ZM4.29477 11.2743L9.17055 3.51005L11.7734 5.14465L6.89681 12.9085L4.29477 11.2743ZM3.65766 13.9895L3.65766 13.9892L3.69888 12.863L5.7222 14.1343L4.72682 14.6599L4.72656 14.6601L3.61079 15.2503L3.65766 13.9895Z" fill="white" stroke="white" stroke-width="0.75"/>
</g>
<defs>
<clipPath id="clip0_562_8524">
<rect width="16" height="16" fill="white" transform="translate(0.5 0.5)"/>
</clipPath>
</defs>
</svg>
