<svg width="21" height="20" viewBox="0 0 21 20" fill="none" xmlns="http://www.w3.org/2000/svg">
<g id="04.&#228;&#186;&#139;&#229;&#139;&#153;/&#227;&#131;&#149;&#227;&#130;&#161;&#227;&#130;&#164;&#227;&#131;&#171;&#230;&#164;&#156;&#231;&#180;&#162;">
<path id="Vector" d="M14.25 15.8337C14.8333 15.8337 15.3264 15.6323 15.7292 15.2295C16.1319 14.8267 16.3333 14.3337 16.3333 13.7503C16.3333 13.167 16.1319 12.6739 15.7292 12.2712C15.3264 11.8684 14.8333 11.667 14.25 11.667C13.6667 11.667 13.1736 11.8684 12.7708 12.2712C12.3681 12.6739 12.1667 13.167 12.1667 13.7503C12.1667 14.3337 12.3681 14.8267 12.7708 15.2295C13.1736 15.6323 13.6667 15.8337 14.25 15.8337ZM19.0833 18.5837C18.9306 18.7364 18.7361 18.8128 18.5 18.8128C18.2639 18.8128 18.0694 18.7364 17.9167 18.5837L16.25 16.917C15.9583 17.1114 15.6425 17.2573 15.3025 17.3545C14.9625 17.4517 14.6117 17.5003 14.25 17.5003C13.2083 17.5003 12.3231 17.1359 11.5942 16.407C10.8653 15.6781 10.5006 14.7925 10.5 13.7503C10.4994 12.7081 10.8642 11.8228 11.5942 11.0945C12.3242 10.3662 13.2094 10.0014 14.25 10.0003C15.2906 9.99921 16.1761 10.3639 16.9067 11.0945C17.6372 11.825 18.0017 12.7103 18 13.7503C18 14.1114 17.9514 14.4623 17.8542 14.8028C17.7569 15.1434 17.6111 15.4592 17.4167 15.7503L19.0833 17.417C19.2361 17.5698 19.3125 17.7642 19.3125 18.0003C19.3125 18.2364 19.2361 18.4309 19.0833 18.5837ZM4.66667 18.3337C4.20833 18.3337 3.81611 18.1706 3.49 17.8445C3.16389 17.5184 3.00056 17.1259 3 16.667V3.33366C3 2.87533 3.16333 2.4831 3.49 2.15699C3.81667 1.83088 4.20889 1.66755 4.66667 1.66699H10.6458C10.8681 1.66699 11.08 1.70866 11.2817 1.79199C11.4833 1.87533 11.6603 1.99338 11.8125 2.14616L15.8542 6.18783C16.0069 6.3406 16.125 6.51783 16.2083 6.71949C16.2917 6.92116 16.3333 7.13283 16.3333 7.35449V7.72949C16.3333 7.97949 16.2325 8.18088 16.0308 8.33366C15.8292 8.48644 15.6036 8.5281 15.3542 8.45866C15.1736 8.41699 14.9931 8.3856 14.8125 8.36449C14.6319 8.34338 14.4444 8.3331 14.25 8.33366C13.4722 8.33366 12.7464 8.47949 12.0725 8.77116C11.3986 9.06283 10.8189 9.47255 10.3333 10.0003H7.16667C6.93056 10.0003 6.73278 10.0803 6.57333 10.2403C6.41389 10.4003 6.33389 10.5981 6.33333 10.8337C6.33278 11.0692 6.41278 11.2673 6.57333 11.4278C6.73389 11.5884 6.93167 11.6681 7.16667 11.667H9.25C9.13889 11.9309 9.05222 12.2017 8.99 12.4795C8.92778 12.7573 8.8825 13.042 8.85417 13.3337H7.16667C6.93056 13.3337 6.73278 13.4137 6.57333 13.5737C6.41389 13.7337 6.33389 13.9314 6.33333 14.167C6.33278 14.4025 6.41278 14.6006 6.57333 14.7612C6.73389 14.9217 6.93167 15.0014 7.16667 15.0003H8.97917C9.07639 15.4309 9.22222 15.8373 9.41667 16.2195C9.61111 16.6017 9.84722 16.9523 10.125 17.2712C10.3194 17.4795 10.3647 17.7087 10.2608 17.9587C10.1569 18.2087 9.97972 18.3337 9.72917 18.3337H4.66667ZM10.5 3.33366V6.66699C10.5 6.9031 10.58 7.10116 10.74 7.26116C10.9 7.42116 11.0978 7.50088 11.3333 7.50033H14.6667L10.5 3.33366Z" fill="white"/>
</g>
</svg>
