<svg width="22" height="21" viewBox="0 0 22 21" fill="none" xmlns="http://www.w3.org/2000/svg">
<g id="lineicons:line">
<path id="&#227;&#131;&#153;&#227;&#130;&#175;&#227;&#130;&#191;&#227;&#131;&#188;" d="M19.383 9.33214C19.383 5.53253 15.5562 2.41675 10.9093 2.41675C6.26227 2.41675 2.43555 5.50541 2.43555 9.33214C2.43555 12.7216 5.44202 15.5646 9.51533 16.1111C9.78818 16.1382 10.1712 16.3026 10.2525 16.5212C10.3356 16.7127 10.2805 17.0678 10.2805 17.2864C10.2805 17.2864 10.1712 17.9152 10.1712 18.0245C10.1441 18.216 10.0068 18.8718 10.9093 18.4346C11.7837 18.0524 15.7749 15.5366 17.5789 13.5148C18.8093 12.2022 19.383 10.8354 19.383 9.33214ZM7.90278 11.3277C7.89965 11.3703 7.88132 11.4103 7.85115 11.4405C7.82097 11.4706 7.78095 11.489 7.73839 11.4921H5.36067C5.33271 11.4921 5.27848 11.4641 5.25051 11.4641C5.2234 11.437 5.2234 11.3828 5.2234 11.3548V7.6374C5.2234 7.55521 5.30559 7.47386 5.38779 7.47386H5.96146C6.04365 7.47386 6.12585 7.55521 6.12585 7.6374V10.5625H7.73839C7.82059 10.5625 7.90278 10.6447 7.90278 10.7261V11.3277ZM9.32382 11.3277C9.32069 11.3703 9.30236 11.4103 9.27219 11.4405C9.24201 11.4706 9.202 11.489 9.15944 11.4921H8.58577C8.54336 11.4888 8.50354 11.4703 8.47354 11.4402C8.44354 11.41 8.42533 11.3701 8.42222 11.3277V7.6374C8.42222 7.55521 8.50357 7.47386 8.58577 7.47386H9.15944C9.24163 7.47386 9.32382 7.55521 9.32382 7.6374V11.3277ZM13.4514 11.3277C13.4482 11.3703 13.4299 11.4103 13.3997 11.4405C13.3696 11.4706 13.3295 11.489 13.287 11.4921H12.6862C12.6591 11.4921 12.6591 11.4641 12.6591 11.4641L10.9093 9.16775V11.3548C10.9061 11.3974 10.8878 11.4374 10.8576 11.4676C10.8274 11.4977 10.7874 11.5161 10.7449 11.5192H10.1712C10.1286 11.5161 10.0886 11.4977 10.0584 11.4676C10.0283 11.4374 10.0099 11.3974 10.0068 11.3548V7.66452C10.0068 7.58317 10.089 7.50097 10.1712 7.50097H10.7457L10.7728 7.52809L12.4676 9.79735V7.61028C12.4676 7.52809 12.5489 7.44589 12.6311 7.44589H13.287C13.3692 7.44589 13.4514 7.52809 13.4514 7.61028V11.3277ZM16.7315 8.23903C16.7282 8.28144 16.7098 8.32126 16.6796 8.35126C16.6495 8.38126 16.6096 8.39947 16.5672 8.40258H14.9546V9.03133H16.5672C16.6493 9.03133 16.7315 9.11352 16.7315 9.19572V9.76939C16.7284 9.81195 16.7101 9.85196 16.6799 9.88214C16.6497 9.91231 16.6097 9.93064 16.5672 9.93378H14.9546V10.5074H16.5672C16.6493 10.5074 16.7315 10.5896 16.7315 10.6718V11.2455C16.7284 11.2881 16.7101 11.3281 16.6799 11.3583C16.6497 11.3884 16.6097 11.4068 16.5672 11.4099H14.1894C14.1623 11.4099 14.1072 11.3828 14.0793 11.3828C14.053 11.3548 14.053 11.3006 14.053 11.2726V7.58402C14.053 7.55605 14.0801 7.50182 14.0801 7.47386C14.1072 7.44674 14.1623 7.44674 14.1894 7.44674H16.5672C16.6493 7.44674 16.7315 7.52894 16.7315 7.61113V8.23903Z" fill="#5D8B00"/>
</g>
</svg>
