<svg width="17" height="19" viewBox="0 0 17 19" fill="none" xmlns="http://www.w3.org/2000/svg">
<g id="&#227;&#130;&#176;&#227;&#131;&#171;&#227;&#131;&#188;&#227;&#131;&#151;">
<path id="&#227;&#131;&#153;&#227;&#130;&#175;&#227;&#130;&#191;&#227;&#131;&#188;" d="M11.9055 0.873535C13.0292 0.873535 14.1068 1.31992 14.9014 2.11448C15.6959 2.90905 16.1423 3.98671 16.1423 5.11039V11.8894C16.1423 13.013 15.6959 14.0907 14.9014 14.8853C14.1068 15.6798 13.0292 16.1262 11.9055 16.1262H5.1265C4.00282 16.1262 2.92516 15.6798 2.13059 14.8853C1.33603 14.0907 0.889648 13.013 0.889648 11.8894V5.11039C0.889648 3.98671 1.33603 2.90905 2.13059 2.11448C2.92516 1.31992 4.00282 0.873535 5.1265 0.873535H11.9055ZM8.51599 5.11039C7.61704 5.11039 6.75491 5.46749 6.11926 6.10315C5.48361 6.7388 5.1265 7.60093 5.1265 8.49987C5.1265 9.39882 5.48361 10.2609 6.11926 10.8966C6.75491 11.5323 7.61704 11.8894 8.51599 11.8894C9.41493 11.8894 10.2771 11.5323 10.9127 10.8966C11.5484 10.2609 11.9055 9.39882 11.9055 8.49987C11.9055 7.60093 11.5484 6.7388 10.9127 6.10315C10.2771 5.46749 9.41493 5.11039 8.51599 5.11039ZM8.51599 6.80513C8.96546 6.80513 9.39652 6.98368 9.71435 7.30151C10.0322 7.61934 10.2107 8.0504 10.2107 8.49987C10.2107 8.94935 10.0322 9.38041 9.71435 9.69824C9.39652 10.0161 8.96546 10.1946 8.51599 10.1946C8.06651 10.1946 7.63545 10.0161 7.31762 9.69824C6.9998 9.38041 6.82124 8.94935 6.82124 8.49987C6.82124 8.0504 6.9998 7.61934 7.31762 7.30151C7.63545 6.98368 8.06651 6.80513 8.51599 6.80513ZM12.3292 3.83933C12.1044 3.83933 11.8889 3.92861 11.73 4.08752C11.5711 4.24644 11.4818 4.46197 11.4818 4.6867C11.4818 4.91144 11.5711 5.12697 11.73 5.28589C11.8889 5.4448 12.1044 5.53407 12.3292 5.53407C12.5539 5.53407 12.7694 5.4448 12.9283 5.28589C13.0873 5.12697 13.1765 4.91144 13.1765 4.6867C13.1765 4.46197 13.0873 4.24644 12.9283 4.08752C12.7694 3.92861 12.5539 3.83933 12.3292 3.83933Z" fill="#5D8B00"/>
</g>
</svg>
