<svg width="20" height="20" viewBox="0 0 20 20" fill="none" xmlns="http://www.w3.org/2000/svg">
<g id="03.&#227;&#131;&#158;&#227;&#131;&#188;&#227;&#130;&#175;/&#227;&#129;&#138;&#233;&#135;&#145;">
<path id="Vector" d="M17.8027 13.666C17.7958 13.6466 17.785 13.6287 17.7711 13.6135C17.7572 13.5983 17.7404 13.5859 17.7217 13.5772C17.703 13.5685 17.6827 13.5636 17.6621 13.5627C17.6415 13.5619 17.6209 13.5651 17.6016 13.5723L16.4062 14.0078V3.49609C16.4062 2.76172 15.8125 2.16797 15.0781 2.16797H4.92188C4.1875 2.16797 3.59375 2.76172 3.59375 3.49609V14.0078L2.39648 13.5723C2.37891 13.5664 2.36133 13.5625 2.34375 13.5625C2.25781 13.5625 2.1875 13.6328 2.1875 13.7188V14.8828C2.1875 14.9473 2.22852 15.0059 2.29102 15.0293L9.78516 17.7559C9.92383 17.8066 10.0742 17.8066 10.2129 17.7559L17.709 15.0312C17.7715 15.0078 17.8125 14.9492 17.8125 14.8848V13.7207C17.8125 13.7012 17.8086 13.6836 17.8027 13.666ZM13.041 6.30273L11.0156 10.0449H12.1406C12.2266 10.0449 12.2969 10.1152 12.2969 10.2012V10.7305C12.2969 10.8164 12.2266 10.8867 12.1406 10.8867H10.6504V11.6484H12.1406C12.2266 11.6484 12.2969 11.7188 12.2969 11.8047V12.334C12.2969 12.4199 12.2266 12.4902 12.1406 12.4902H10.6504V13.7305C10.6504 13.8164 10.5801 13.8867 10.4941 13.8867H9.51953C9.43359 13.8867 9.36328 13.8164 9.36328 13.7305V12.4922H7.87891C7.79297 12.4922 7.72266 12.4219 7.72266 12.3359V11.8066C7.72266 11.7207 7.79297 11.6504 7.87891 11.6504H9.36328V10.8887H7.87891C7.79297 10.8887 7.72266 10.8184 7.72266 10.7324V10.2031C7.72266 10.1172 7.79297 10.0469 7.87891 10.0469H8.99219L6.96289 6.30469C6.92188 6.23047 6.94922 6.13477 7.02539 6.09375C7.04883 6.08008 7.07422 6.07422 7.09961 6.07422H8.1875C8.21629 6.07438 8.24447 6.08249 8.26894 6.09765C8.29341 6.11282 8.31322 6.13445 8.32617 6.16016L9.98047 9.45703H10.0449L11.6992 6.16016C11.7246 6.10742 11.7793 6.07422 11.8379 6.07422H12.9023C12.9883 6.07422 13.0586 6.14453 13.0605 6.22852C13.0605 6.25391 13.0527 6.2793 13.041 6.30273Z" fill="#DCCEC1"/>
</g>
</svg>
